HIERARCHY
ROOT Hips
{
	OFFSET -0.104279 88.258125 2.461052
	CHANNELS 6 Xposition Yposition Zposition Zrotation Yrotation Xrotation 
	JOINT Spine
	{
		OFFSET -0.000000 8.814246 -2.080107
		CHANNELS 3 Zrotation Yrotation Xrotation
		JOINT Spine1
		{
			OFFSET 0.000000 8.844141 0.000000
			CHANNELS 3 Zrotation Yrotation Xrotation
			JOINT Spine2
			{
				OFFSET -0.000000 11.682268 0.000000
				CHANNELS 3 Zrotation Yrotation Xrotation
				JOINT Spine3
				{
					OFFSET 0.000000 11.746700 0.000000
					CHANNELS 3 Zrotation Yrotation Xrotation
					JOINT Neck
					{
						OFFSET 0.000000 17.658264 -0.000000
						CHANNELS 3 Zrotation Yrotation Xrotation
						JOINT Neck1
						{
							OFFSET -0.000000 5.101515 0.000000
							CHANNELS 3 Zrotation Yrotation Xrotation
							JOINT Head
							{
								OFFSET 0.000000 5.101515 -0.000000
								CHANNELS 3 Zrotation Yrotation Xrotation
								JOINT HeadEnd
								{
									OFFSET -0.000000 11.655085 -0.000000
									CHANNELS 3 Zrotation Yrotation Xrotation
									End Site
									{
										OFFSET 0.000000 0.000000 0.000000
									}
								}
							}
						}
					}
					JOINT RightShoulder
					{
						OFFSET -2.625389 11.175210 -0.000000
						CHANNELS 3 Zrotation Yrotation Xrotation
						JOINT RightArm
						{
							OFFSET 0.000000 10.434715 0.000000
							CHANNELS 3 Zrotation Yrotation Xrotation
							JOINT RightForeArm
							{
								OFFSET -0.000000 29.628420 -0.000000
								CHANNELS 3 Zrotation Yrotation Xrotation
								JOINT RightHand
								{
									OFFSET -0.000000 22.857611 0.000000
									CHANNELS 3 Zrotation Yrotation Xrotation
									JOINT RightHandThumb1
									{
										OFFSET -2.867323 3.959563 2.944291
										CHANNELS 3 Zrotation Yrotation Xrotation
										JOINT RightHandThumb2
										{
											OFFSET -0.000000 3.350399 0.000000
											CHANNELS 3 Zrotation Yrotation Xrotation
											JOINT RightHandThumb3
											{
												OFFSET 0.000000 3.756509 -0.000000
												CHANNELS 3 Zrotation Yrotation Xrotation
												JOINT RightHandThumb4
												{
													OFFSET -0.000000 3.147345 0.000000
													CHANNELS 3 Zrotation Yrotation Xrotation
													End Site
													{
														OFFSET 0.000000 0.000000 0.000000
													}
												}
											}
										}
									}
									JOINT RightHandIndex1
									{
										OFFSET -0.086752 10.030893 2.345280
										CHANNELS 3 Zrotation Yrotation Xrotation
										JOINT RightHandIndex2
										{
											OFFSET -0.000000 4.061090 0.000000
											CHANNELS 3 Zrotation Yrotation Xrotation
											JOINT RightHandIndex3
											{
												OFFSET -0.000000 3.248873 -0.000000
												CHANNELS 3 Zrotation Yrotation Xrotation
												JOINT RightHandIndex4
												{
													OFFSET -0.000000 2.639709 -0.000000
													CHANNELS 3 Zrotation Yrotation Xrotation
													End Site
													{
														OFFSET 0.000000 0.000000 0.000000
													}
												}
											}
										}
									}
									JOINT RightHandMiddle1
									{
										OFFSET 0.104102 9.502952 0.006768
										CHANNELS 3 Zrotation Yrotation Xrotation
										JOINT RightHandMiddle2
										{
											OFFSET 0.000000 4.568727 -0.000000
											CHANNELS 3 Zrotation Yrotation Xrotation
											JOINT RightHandMiddle3
											{
												OFFSET -0.000000 3.654981 0.000000
												CHANNELS 3 Zrotation Yrotation Xrotation
												JOINT RightHandMiddle4
												{
													OFFSET -0.000000 2.741236 0.000000
													CHANNELS 3 Zrotation Yrotation Xrotation
													End Site
													{
														OFFSET 0.000000 0.000000 0.000000
													}
												}
											}
										}
									}
									JOINT RightHandRing1
									{
										OFFSET 0.086752 8.921708 -2.267442
										CHANNELS 3 Zrotation Yrotation Xrotation
										JOINT RightHandRing2
										{
											OFFSET -0.000000 4.061090 0.000000
											CHANNELS 3 Zrotation Yrotation Xrotation
											JOINT RightHandRing3
											{
												OFFSET -0.000000 3.654981 -0.000000
												CHANNELS 3 Zrotation Yrotation Xrotation
												JOINT RightHandRing4
												{
													OFFSET -0.000000 2.741236 0.000000
													CHANNELS 3 Zrotation Yrotation Xrotation
													End Site
													{
														OFFSET 0.000000 0.000000 0.000000
													}
												}
											}
										}
									}
									JOINT RightHandPinky1
									{
										OFFSET -0.173504 7.976997 -4.467199
										CHANNELS 3 Zrotation Yrotation Xrotation
										JOINT RightHandPinky2
										{
											OFFSET 0.000000 3.350399 -0.000000
											CHANNELS 3 Zrotation Yrotation Xrotation
											JOINT RightHandPinky3
											{
												OFFSET -0.000000 2.842763 -0.000000
												CHANNELS 3 Zrotation Yrotation Xrotation
												JOINT RightHandPinky4
												{
													OFFSET -0.000000 2.639709 -0.000000
													CHANNELS 3 Zrotation Yrotation Xrotation
													End Site
													{
														OFFSET 0.000000 0.000000 0.000000
													}
												}
											}
										}
									}
									JOINT RightForeArmEnd
									{
										OFFSET 0.000000 0.000000 0.000000
										CHANNELS 3 Zrotation Yrotation Xrotation
										End Site
										{
											OFFSET 0.000000 0.000000 0.000000
										}
									}
								}
								JOINT RightArmEnd
								{
									OFFSET 0.000000 0.000000 0.000000
									CHANNELS 3 Zrotation Yrotation Xrotation
									End Site
									{
										OFFSET 0.000000 0.000000 0.000000
									}
								}
							}
						}
					}
					JOINT LeftShoulder
					{
						OFFSET 2.625389 11.175210 0.000000
						CHANNELS 3 Zrotation Yrotation Xrotation
						JOINT LeftArm
						{
							OFFSET 0.000000 10.813635 -0.000000
							CHANNELS 3 Zrotation Yrotation Xrotation
							JOINT LeftForeArm
							{
								OFFSET 0.000000 28.724781 0.000000
								CHANNELS 3 Zrotation Yrotation Xrotation
								JOINT LeftHand
								{
									OFFSET 0.644384 25.716167 -0.328871
									CHANNELS 3 Zrotation Yrotation Xrotation
									JOINT LeftHandThumb1
									{
										OFFSET 2.867323 3.959563 2.944291
										CHANNELS 3 Zrotation Yrotation Xrotation
										JOINT LeftHandThumb2
										{
											OFFSET -0.000000 3.350399 -0.000000
											CHANNELS 3 Zrotation Yrotation Xrotation
											JOINT LeftHandThumb3
											{
												OFFSET 0.000000 3.756509 -0.000000
												CHANNELS 3 Zrotation Yrotation Xrotation
												JOINT LeftHandThumb4
												{
													OFFSET 0.000000 3.100000 0.000000
													CHANNELS 3 Zrotation Yrotation Xrotation
													End Site
													{
														OFFSET 0.000000 0.000000 0.000000
													}
												}
											}
										}
									}
									JOINT LeftHandIndex1
									{
										OFFSET 0.086752 10.030893 2.345280
										CHANNELS 3 Zrotation Yrotation Xrotation
										JOINT LeftHandIndex2
										{
											OFFSET 0.000000 4.061090 0.000000
											CHANNELS 3 Zrotation Yrotation Xrotation
											JOINT LeftHandIndex3
											{
												OFFSET 0.000000 3.248873 0.000000
												CHANNELS 3 Zrotation Yrotation Xrotation
												JOINT LeftHandIndex4
												{
													OFFSET 0.000000 2.639709 0.000000
													CHANNELS 3 Zrotation Yrotation Xrotation
													End Site
													{
														OFFSET 0.000000 0.000000 0.000000
													}
												}
											}
										}
									}
									JOINT LeftHandMiddle1
									{
										OFFSET -0.104102 9.502952 0.006768
										CHANNELS 3 Zrotation Yrotation Xrotation
										JOINT LeftHandMiddle2
										{
											OFFSET 0.000000 4.568727 -0.000000
											CHANNELS 3 Zrotation Yrotation Xrotation
											JOINT LeftHandMiddle3
											{
												OFFSET 0.000000 3.654981 0.000000
												CHANNELS 3 Zrotation Yrotation Xrotation
												JOINT LeftHandMiddle4
												{
													OFFSET 0.000000 2.741236 0.000000
													CHANNELS 3 Zrotation Yrotation Xrotation
													End Site
													{
														OFFSET 0.000000 0.000000 0.000000
													}
												}
											}
										}
									}
									JOINT LeftHandRing1
									{
										OFFSET -0.086752 8.921708 -2.267442
										CHANNELS 3 Zrotation Yrotation Xrotation
										JOINT LeftHandRing2
										{
											OFFSET 0.000000 4.061090 0.000000
											CHANNELS 3 Zrotation Yrotation Xrotation
											JOINT LeftHandRing3
											{
												OFFSET -0.000000 3.654981 -0.000000
												CHANNELS 3 Zrotation Yrotation Xrotation
												JOINT LeftHandRing4
												{
													OFFSET -0.000000 2.741236 -0.000000
													CHANNELS 3 Zrotation Yrotation Xrotation
													End Site
													{
														OFFSET 0.000000 0.000000 0.000000
													}
												}
											}
										}
									}
									JOINT LeftHandPinky1
									{
										OFFSET 0.173504 7.976997 -4.467199
										CHANNELS 3 Zrotation Yrotation Xrotation
										JOINT LeftHandPinky2
										{
											OFFSET 0.000000 3.350399 0.000000
											CHANNELS 3 Zrotation Yrotation Xrotation
											JOINT LeftHandPinky3
											{
												OFFSET 0.000000 2.842763 -0.000000
												CHANNELS 3 Zrotation Yrotation Xrotation
												JOINT LeftHandPinky4
												{
													OFFSET 0.000000 2.639709 0.000000
													CHANNELS 3 Zrotation Yrotation Xrotation
													End Site
													{
														OFFSET 0.000000 0.000000 0.000000
													}
												}
											}
										}
									}
									JOINT LeftForeArmEnd
									{
										OFFSET 0.000000 0.000000 0.000000
										CHANNELS 3 Zrotation Yrotation Xrotation
										End Site
										{
											OFFSET 0.000000 0.000000 0.000000
										}
									}
								}
								JOINT LeftArmEnd
								{
									OFFSET 0.000000 0.000000 0.000000
									CHANNELS 3 Zrotation Yrotation Xrotation
									End Site
									{
										OFFSET 0.000000 0.000000 0.000000
									}
								}
							}
						}
					}
				}
			}
		}
	}
	JOINT RightUpLeg
	{
		OFFSET -11.289943 -0.000000 -0.000000
		CHANNELS 3 Zrotation Yrotation Xrotation
		JOINT RightLeg
		{
			OFFSET -0.000000 -38.200325 0.000000
			CHANNELS 3 Zrotation Yrotation Xrotation
			JOINT RightFoot
			{
				OFFSET 0.000000 -39.900856 0.000000
				CHANNELS 3 Zrotation Yrotation Xrotation
				JOINT RightToeBase
				{
					OFFSET -0.000000 -0.000000 15.261641
					CHANNELS 3 Zrotation Yrotation Xrotation
					JOINT RightToeBaseEnd
					{
						OFFSET -0.000000 -0.000000 7.370709
						CHANNELS 3 Zrotation Yrotation Xrotation
						End Site
						{
							OFFSET 0.000000 0.000000 0.000000
						}
					}
				}
				JOINT RightLegEnd
				{
					OFFSET 0.000000 0.000000 0.000000
					CHANNELS 3 Zrotation Yrotation Xrotation
					End Site
					{
						OFFSET 0.000000 0.000000 0.000000
					}
				}
			}
			JOINT RightUpLegEnd
			{
				OFFSET 0.000000 0.000000 0.000000
				CHANNELS 3 Zrotation Yrotation Xrotation
				End Site
				{
					OFFSET 0.000000 0.000000 0.000000
				}
			}
		}
	}
	JOINT LeftUpLeg
	{
		OFFSET 11.315661 0.000000 -0.000000
		CHANNELS 3 Zrotation Yrotation Xrotation
		JOINT LeftLeg
		{
			OFFSET -0.000000 -38.200325 0.000000
			CHANNELS 3 Zrotation Yrotation Xrotation
			JOINT LeftFoot
			{
				OFFSET 0.000000 -39.900856 0.000000
				CHANNELS 3 Zrotation Yrotation Xrotation
				JOINT LeftToeBase
				{
					OFFSET -0.000000 0.000000 15.261641
					CHANNELS 3 Zrotation Yrotation Xrotation
					JOINT LeftToeBaseEnd
					{
						OFFSET -0.000000 -0.000000 7.539996
						CHANNELS 3 Zrotation Yrotation Xrotation
						End Site
						{
							OFFSET 0.000000 0.000000 0.000000
						}
					}
				}
				JOINT LeftLegEnd
				{
					OFFSET 0.000000 0.000000 0.000000
					CHANNELS 3 Zrotation Yrotation Xrotation
					End Site
					{
						OFFSET 0.000000 0.000000 0.000000
					}
				}
			}
			JOINT LeftUpLegEnd
			{
				OFFSET 0.000000 0.000000 0.000000
				CHANNELS 3 Zrotation Yrotation Xrotation
				End Site
				{
					OFFSET 0.000000 0.000000 0.000000
				}
			}
		}
	}
}
MOTION
Frames: 4
Frame Time: 0.016667
-0.104279 88.258125 2.461052 -0.656524 -0.060783 -5.289307 0.954529 -0.076888 4.918059 -0.543657 0.029261 2.726284 0.751418 -1.519136 2.090649 1.197495 0.002702 0.959722 0.482411 0.707838 3.664479 0.218209 1.692089 -3.332182 -0.882757 -0.978603 -18.217691 0.000000 0.000000 0.000000 89.190453 0.144407 10.191313 64.080154 -34.443798 7.799577 -0.113367 17.222965 24.558565 5.848034 13.863211 -3.157977 10.637670 -1.840801 39.870987 0.000000 0.000000 -25.919998 0.000001 0.000000 -18.000004 0.000000 0.000000 0.000000 10.219835 16.743265 -10.264594 8.884398 -0.796156 -2.692341 8.883582 0.192000 -2.537882 0.000000 0.000000 0.000000 11.733671 6.874250 -10.929679 9.091148 -0.916186 -1.109430 9.089972 0.072496 -0.951432 0.000000 0.000000 0.000000 18.232126 -8.794247 -12.373536 11.337653 1.833027 1.775514 11.331716 -0.132177 1.382435 0.000000 0.000000 0.000000 25.393354 -25.152029 -15.697461 12.066877 3.401218 5.672380 12.045790 -0.510621 4.836784 0.000000 0.000000 0.000000 0.000000 0.000000 0.000000 0.000000 0.000000 0.000000 -86.169395 -0.470481 6.940592 -72.598381 29.712233 -7.820552 -0.523043 -6.786959 41.302921 -4.623736 -15.763072 -12.829064 -10.937046 1.865515 39.738762 0.000000 0.000000 -26.639997 0.000001 0.000000 -18.499998 0.000000 0.000000 0.000000 -17.302471 16.828856 -8.378769 -9.996258 -0.737414 3.026381 -9.995515 0.247369 2.852794 0.000000 0.000000 0.000000 -14.878748 6.913764 -9.047046 -9.594326 -0.900925 1.170291 -9.593703 0.083831 0.993341 0.000000 0.000000 0.000000 -13.590091 -8.895025 -8.830947 -10.402879 1.851220 -1.630819 -10.397419 -0.115532 -1.269751 0.000000 0.000000 0.000000 -10.401943 -25.558514 -11.328734 -9.968866 3.591214 -4.694771 -9.949528 -0.344996 -4.002852 0.000000 0.000000 0.000000 0.000000 0.000000 0.000000 0.000000 0.000000 0.000000 -2.191670 -3.192988 -1.170421 -0.220256 -0.503252 23.638262 1.659589 -13.017710 12.681954 -1.156654 0.571969 -22.004379 0.000000 0.000000 0.000000 0.000000 0.000000 0.000000 0.000000 0.000000 0.000000 0.857901 -13.318384 -3.304535 0.186122 0.464720 21.826706 -0.101554 8.124136 13.829531 0.471486 -0.753927 -21.989355 0.000000 0.000000 0.000000 0.000000 0.000000 0.000000 0.000000 0.000000 0.000000 
0.222983 88.031357 2.161805 0.367336 -0.241780 -7.135603 -0.529481 0.098903 6.262277 0.374009 0.025885 4.867439 0.507110 1.609198 -0.662917 1.707084 0.594547 3.661927 -0.301018 -0.707382 3.756856 1.607656 -0.004524 -3.955212 0.249744 -0.742036 -16.747408 0.000000 0.000000 0.000000 88.511719 0.368891 8.492106 62.592880 -26.538200 8.079365 0.384443 11.138601 25.774689 7.361139 13.700605 -5.523357 10.453412 -1.819168 39.944172 0.000007 0.000032 -25.775063 -0.000003 0.000023 -17.871393 0.000010 -0.000004 -0.000004 10.727864 17.011501 -12.438151 9.315965 -0.632654 -2.976495 9.457504 0.361140 -2.788231 -0.000017 -0.000008 -0.000026 12.652148 7.020191 -12.051825 9.483573 -0.846405 -1.218904 9.488049 0.137622 -1.041275 0.000041 -0.000095 0.000023 18.573492 -9.111501 -10.650514 11.269300 1.772282 1.757707 11.209315 -0.195514 1.365913 0.000005 -0.001485 0.000012 23.464558 -26.059704 -10.752001 11.419218 3.291195 5.157203 11.160349 -0.627291 4.390991 -0.000176 -0.000002 -0.000004 0.000000 0.000000 0.000000 0.000000 0.000000 0.000000 -86.988113 -0.430170 8.642406 -69.858459 36.655334 -4.730525 -1.318204 -13.666153 40.603123 -4.236093 -13.640031 -14.001832 -11.121011 1.852556 39.682358 0.000006 0.000016 -26.926226 0.000024 -0.000026 -18.742620 0.000135 -0.000003 0.001842 -17.294767 17.092384 -6.124716 -10.257064 -0.606896 3.256212 -10.565846 0.369088 3.052221 0.000003 0.000196 0.000009 -15.514337 7.052216 -7.074412 -10.133373 -0.855749 1.289813 -9.906333 0.125946 1.097519 -0.000126 -0.000038 -0.000040 -13.993242 -9.051758 -7.624990 -10.436535 1.791424 -1.761146 -10.360044 -0.163790 -1.348198 0.000733 0.000011 0.000001 -10.389556 -25.824848 -10.838375 -9.455695 3.419785 -4.719941 -9.552633 -0.481585 -4.027104 0.000026 -0.000008 -0.000019 0.000000 0.000000 0.000000 0.000000 0.000000 0.000000 -2.677311 -0.807992 0.756765 -0.162664 -0.318951 22.685425 0.955513 -13.424876 15.954268 -0.824510 0.405761 -22.086029 0.000000 0.000000 0.000000 0.000000 0.000000 0.000000 0.000000 0.000000 0.000000 -0.140479 -7.469909 0.431118 0.227905 0.429375 19.644690 0.189054 3.205871 15.791101 0.264333 -0.968360 -21.197306 0.000000 0.000000 0.000000 0.000000 0.000000 0.000000 0.000000 0.000000 0.000000 
0.473047 88.055145 2.176183 0.642352 -0.408696 -6.994668 -0.807298 0.148461 6.233886 0.360643 0.043573 4.598129 0.353858 1.740996 -0.419846 1.735414 0.609081 3.624565 -0.317055 -0.935869 3.665155 1.575243 -0.417265 -3.803897 0.370362 -0.640415 -16.787310 0.000000 0.000000 0.000000 88.625343 0.365827 8.460169 62.347759 -26.570545 8.234360 0.365887 11.064484 25.434547 7.535168 13.172220 -5.935722 10.593939 -1.831677 39.878571 0.000003 0.000034 -26.180975 -0.000002 0.000016 -18.139362 0.000013 0.000003 -0.000007 11.186429 17.015013 -12.326955 9.443925 -0.627002 -2.995832 9.598534 0.370483 -2.806939 -0.000005 0.000005 -0.000015 12.990025 7.025958 -11.893484 9.657986 -0.842492 -1.226757 9.642932 0.142102 -1.048412 0.000036 -0.000123 0.000014 18.820318 -9.133251 -10.428956 11.460933 1.768321 1.758583 11.400551 -0.199225 1.367723 -0.000002 -0.001605 0.000010 23.626410 -26.126114 -10.514493 11.616932 3.292446 5.153705 11.336239 -0.632157 4.397878 -0.000235 0.000005 -0.000013 0.000000 0.000000 0.000000 0.000000 0.000000 0.000000 -86.920326 -0.339806 8.747595 -69.890282 36.234333 -4.844133 -1.247164 -13.730985 40.550880 -4.328304 -13.553874 -14.100256 -11.177402 1.846881 39.659863 0.000006 0.000018 -27.096979 0.000017 -0.000019 -18.861385 0.000020 0.000002 0.001799 -17.315643 17.107512 -6.235832 -10.304003 -0.604144 3.256602 -10.605078 0.372355 3.050065 0.000022 0.000213 0.000008 -15.436767 7.069594 -7.234241 -10.175252 -0.854697 1.287146 -9.973072 0.127117 1.096090 -0.000151 -0.000044 -0.000085 -13.758029 -9.081355 -7.704318 -10.464556 1.791105 -1.756498 -10.417953 -0.164293 -1.345006 0.000845 0.000009 0.000000 -10.055603 -25.918686 -10.766661 -9.447614 3.425357 -4.686201 -9.577924 -0.479652 -4.005836 0.000185 0.000000 -0.000033 0.000000 0.000000 0.000000 0.000000 0.000000 0.000000 -3.127132 -0.624578 0.348286 -0.154600 -0.316101 22.702621 1.155661 -13.400093 15.923981 -0.841029 0.381398 -22.028227 0.000000 0.000000 0.000000 0.000000 0.000000 0.000000 0.000000 0.000000 0.000000 -0.545928 -6.743114 0.378427 0.217988 0.427537 18.941648 0.398611 3.227458 16.064980 0.287960 -0.988629 -21.090948 0.000000 0.000000 0.000000 0.000000 0.000000 0.000000 0.000000 0.000000 0.000000 
0.708343 88.107262 2.182118 0.857492 -0.593401 -6.781275 -1.095228 0.196893 6.189479 0.345814 0.047994 4.324779 0.247762 1.859941 -0.251904 1.786257 0.629457 3.671424 -0.380240 -1.154199 3.605028 1.545014 -0.765046 -3.673915 0.462062 -0.559454 -16.861340 0.000000 0.000000 0.000000 88.684891 0.333833 8.347006 62.213177 -26.622330 8.302433 0.329644 11.052038 25.439730 7.605465 12.820030 -6.402015 10.714233 -1.848935 39.813999 0.000003 0.000033 -26.539970 -0.000004 0.000017 -18.379040 0.000011 0.000002 -0.000007 11.701452 16.995928 -12.105584 9.592140 -0.621353 -3.026673 9.773005 0.377283 -2.838946 -0.000006 0.000004 -0.000013 13.488650 7.019840 -11.631318 9.865713 -0.838736 -1.241033 9.836778 0.146143 -1.061366 0.000035 -0.000126 0.000014 19.292717 -9.144329 -10.034249 11.734479 1.763853 1.771603 11.680869 -0.203145 1.380376 -0.000002 -0.001723 0.000010 24.011303 -26.191278 -10.083163 11.928483 3.287933 5.195009 11.625265 -0.640672 4.445142 -0.000268 0.000005 -0.000021 0.000000 0.000000 0.000000 0.000000 0.000000 0.000000 -86.767921 -0.243719 8.745595 -69.840881 35.818874 -4.835438 -1.203187 -13.819586 40.327736 -4.616734 -13.443672 -14.298890 -11.215248 1.843875 39.640491 0.000006 0.000018 -27.243238 0.000018 -0.000021 -18.959787 -0.000051 0.000001 0.001620 -17.512794 17.133253 -6.291572 -10.471892 -0.598256 3.274445 -10.764290 0.377823 3.069917 0.000023 0.000210 0.000010 -15.571672 7.085288 -7.291613 -10.348546 -0.852043 1.294351 -10.158389 0.129153 1.103257 -0.000263 -0.000046 -0.000118 -13.774618 -9.109764 -7.603263 -10.641059 1.789218 -1.769416 -10.606116 -0.166433 -1.355868 0.001037 0.000007 0.000000 -10.019103 -25.997454 -10.491690 -9.572718 3.423437 -4.706433 -9.712218 -0.481828 -4.029803 0.000315 -0.000001 -0.000032 0.000000 0.000000 0.000000 0.000000 0.000000 0.000000 -3.445230 -0.378962 0.006091 -0.148411 -0.317609 22.483946 1.251541 -13.236514 15.999828 -0.847866 0.368201 -22.034670 0.000000 0.000000 0.000000 0.000000 0.000000 0.000000 0.000000 0.000000 0.000000 -0.864741 -6.120458 0.342867 0.204832 0.425710 18.270998 0.618080 3.390212 16.324360 0.307365 -0.988590 -21.032887 0.000000 0.000000 0.000000 0.000000 0.000000 0.000000 0.000000 0.000000 0.000000 
